<?xml version="1.0" encoding="utf-8"?>
<!-- Generator: Adobe Illustrator 24.0.3, SVG Export Plug-In . SVG Version: 6.00 Build 0)  -->
<svg version="1.1" id="Layer_1" xmlns="http://www.w3.org/2000/svg" xmlns:xlink="http://www.w3.org/1999/xlink" x="0px" y="0px"
	 viewBox="0 0 152.04 152" style="enable-background:new 0 0 152.04 152;" xml:space="preserve">
<style type="text/css">
	.st0{fill:#FFFFFF;}
</style>
<g>
	<g>
		<path class="st0" d="M86.78,46.63c3.44,0.07,3.22-2.3,2.99-5.15c-0.25-3.07-1.4-5.03-3.34-5.19c-1.74-0.15-3.08,2.3-2.99,5.15
			C83.54,44.29,85.03,46.6,86.78,46.63z"/>
		<path class="st0" d="M98.29,44.83c1.67-0.08,3.31-2.11,2.68-5.06c-0.55-2.57-0.78-4.7-3.37-4.76c-1.67-0.03-2.87,2.35-2.67,5.06
			C95.11,42.78,96.62,44.91,98.29,44.83z"/>
	</g>
	<path class="st0" d="M137.96,31.74c-13.94-17.66-28.38-26.36-32.48-28.61c-0.72-0.4-1.52-0.66-2.34-0.77
		c-45.03-5.99-67.42,9.39-73.21,14.25c-0.78,0.65-1.43,1.45-1.91,2.34C13.67,45.78,11.5,76.23,11.18,84.92
		c-0.07,1.87,0.13,3.73,0.59,5.54c5.05,19.94,12.78,39.1,23,56.95l0.03,0.05c0.46,0.95,1.2,1.74,2.11,2.27c1,0.37,2.04,0.6,3.1,0.67
		c0.26,0.03,0.53,0.07,0.83,0.11c2.49,0.31,5,0.48,7.51,0.48c4.72,0,10.1-0.62,14.39-2.82c1.2-0.61,2.27-1.44,3.14-2.46
		c0.63-0.81,0.81-1.89,0.49-2.86L48.05,72.69c-0.18-0.71-0.22-1.44-0.11-2.17l3.7-24.21c0.16-1.09,0.6-2.12,1.28-2.99
		c2.72-3.46,9.52-9.8,24.57-13.52c0.21-0.05,0.39-0.19,0.49-0.38c0.16-0.32,0.2-0.7,0.09-1.04c-0.93-3.62-3.35-10-3.38-10.06
		c-0.27-0.71-0.25-1.49,0.07-2.18c0.29-0.63,0.83-1.11,1.49-1.33c0,0,0.01,0,0.01,0c1.45-0.47,3.01,0.32,3.49,1.77
		c0.04,0.09,3.67,9.17,4.27,11.16c0.21,0.51,0.73,0.83,1.29,0.79l0.56-0.05c1.22-0.12,3.07-0.29,5.17-0.35
		c0.63,0.01,1.17-0.47,1.23-1.1c0-3.57-0.19-7.13-0.57-10.68c-0.01-0.13-0.02-0.27-0.01-0.4c0.07-1.36,1.23-2.4,2.59-2.33
		c1.53,0,2.77,1.24,2.77,2.77c0.01,0.09,0.71,8.83,0.66,10.9c0.01,0.54,0.36,1.02,0.88,1.2c6.23,2.04,9.88,5.01,10.87,8.82
		c1.53,5.94-3.78,12.24-5.45,14.03c-0.24,0.26-0.49,0.5-0.75,0.73c-7.07,6.11-19.65,4.76-26.52,3.4c-1.39-0.45-2.91-0.26-4.15,0.52
		c-0.8,0.62-1.33,1.52-1.49,2.52c-1.47,5.24-2.05,10.68-1.72,16.11c-0.02,1.3,0.61,2.52,1.67,3.26c0.42,0.33,0.9,0.56,1.42,0.67
		l2.22,0.4c12.26,2.28,29.56,3.89,42.39-1.35c7.73-3.16,10.14-7.26,10.22-7.4c4.38-5.81,11.39-22.02,12.75-25.21
		c0.17-0.38,0.31-0.78,0.42-1.18C141.46,39.63,140.54,35.21,137.96,31.74z"/>
</g>
</svg>
